<svg width="20" height="21" viewBox="0 0 20 21" fill="none" xmlns="http://www.w3.org/2000/svg">
<path d="M15.525 6.30318C15.5583 6.81151 15.5166 7.38651 15.4166 8.02818L14.8083 11.9365C14.2916 15.1948 12.7833 16.2948 9.52495 15.7865L5.61662 15.1698C4.49162 14.9948 3.62495 14.6948 2.99162 14.2448C1.78329 13.4032 1.43329 12.0198 1.76662 9.88651L2.38329 5.97818C2.89995 2.71984 4.40829 1.61984 7.66662 2.12818L11.575 2.74484C14.1916 3.15318 15.4166 4.21984 15.525 6.30318Z" stroke="#FF9800" stroke-width="1.5" stroke-linecap="round" stroke-linejoin="round"/>
<path d="M17.0834 11.5699L15.8334 15.3282C14.7917 18.4616 13.125 19.2949 9.9917 18.2532L6.23337 17.0032C4.3417 16.3782 3.2917 15.5116 2.9917 14.2449C3.62503 14.6949 4.4917 14.9949 5.6167 15.1699L9.52503 15.7866C12.7834 16.2949 14.2917 15.1949 14.8084 11.9366L15.4167 8.02822C15.5167 7.38656 15.5584 6.81156 15.525 6.30322C17.5167 7.36156 17.95 8.96156 17.0834 11.5699Z" stroke="#FF9800" stroke-width="1.5" stroke-linecap="round" stroke-linejoin="round"/>
<path d="M6.86663 7.82822C7.66744 7.82822 8.31663 7.17904 8.31663 6.37822C8.31663 5.57741 7.66744 4.92822 6.86663 4.92822C6.06581 4.92822 5.41663 5.57741 5.41663 6.37822C5.41663 7.17904 6.06581 7.82822 6.86663 7.82822Z" stroke="#FF9800" stroke-width="1.5" stroke-linecap="round" stroke-linejoin="round"/>
</svg>
