<svg width="20" height="21" viewBox="0 0 20 21" fill="none" xmlns="http://www.w3.org/2000/svg">
<path d="M7.22656 12.4416C7.22656 13.5166 8.05156 14.3832 9.07656 14.3832H11.1682C12.0599 14.3832 12.7849 13.6249 12.7849 12.6916C12.7849 11.6749 12.3432 11.3166 11.6849 11.0832L8.32656 9.91658C7.66823 9.68324 7.22656 9.32491 7.22656 8.30824C7.22656 7.37491 7.95156 6.61658 8.84323 6.61658H10.9349C11.9599 6.61658 12.7849 7.48324 12.7849 8.55824" stroke="#292D32" stroke-width="1.5" stroke-linecap="round" stroke-linejoin="round"/>
<path d="M10 5.5V15.5" stroke="#292D32" stroke-width="1.5" stroke-linecap="round" stroke-linejoin="round"/>
<path d="M12.5 18.8333H7.49996C3.33329 18.8333 1.66663 17.1666 1.66663 13V7.99996C1.66663 3.83329 3.33329 2.16663 7.49996 2.16663H12.5C16.6666 2.16663 18.3333 3.83329 18.3333 7.99996V13C18.3333 17.1666 16.6666 18.8333 12.5 18.8333Z" stroke="#292D32" stroke-width="1.5" stroke-linecap="round" stroke-linejoin="round"/>
</svg>
