<svg width="20" height="21" viewBox="0 0 20 21" fill="none" xmlns="http://www.w3.org/2000/svg">
<path d="M15 6.4062C14.95 6.39787 14.8917 6.39787 14.8417 6.4062C13.6917 6.36454 12.775 5.42287 12.775 4.2562C12.775 3.06454 13.7334 2.1062 14.925 2.1062C16.1167 2.1062 17.075 3.07287 17.075 4.2562C17.0667 5.42287 16.15 6.36454 15 6.4062Z" stroke="#292D32" stroke-width="1.5" stroke-linecap="round" stroke-linejoin="round"/>
<path d="M14.1417 12.473C15.2834 12.6647 16.5417 12.4647 17.425 11.873C18.6 11.0897 18.6 9.80634 17.425 9.023C16.5334 8.43134 15.2584 8.23133 14.1167 8.43133" stroke="#292D32" stroke-width="1.5" stroke-linecap="round" stroke-linejoin="round"/>
<path d="M4.97478 6.40633C5.02478 6.39799 5.08311 6.39799 5.13311 6.40633C6.28311 6.36466 7.19978 5.42299 7.19978 4.25632C7.19978 3.06466 6.24145 2.10632 5.04978 2.10632C3.85812 2.10632 2.89978 3.07299 2.89978 4.25632C2.90811 5.42299 3.82478 6.36466 4.97478 6.40633Z" stroke="#292D32" stroke-width="1.5" stroke-linecap="round" stroke-linejoin="round"/>
<path d="M5.83304 12.473C4.69137 12.6647 3.43304 12.4647 2.54971 11.873C1.37471 11.0897 1.37471 9.80634 2.54971 9.023C3.44137 8.43134 4.71637 8.23133 5.85804 8.43133" stroke="#292D32" stroke-width="1.5" stroke-linecap="round" stroke-linejoin="round"/>
<path d="M10.0001 12.6312C9.95014 12.6228 9.89181 12.6228 9.84181 12.6312C8.69181 12.5895 7.77515 11.6478 7.77515 10.4812C7.77515 9.28951 8.73348 8.33118 9.92514 8.33118C11.1168 8.33118 12.0751 9.29784 12.0751 10.4812C12.0668 11.6478 11.1501 12.5978 10.0001 12.6312Z" stroke="#292D32" stroke-width="1.5" stroke-linecap="round" stroke-linejoin="round"/>
<path d="M7.57534 15.2562C6.40034 16.0396 6.40034 17.3229 7.57534 18.1062C8.90868 18.9979 11.092 18.9979 12.4253 18.1062C13.6003 17.3229 13.6003 16.0396 12.4253 15.2562C11.1003 14.3729 8.90868 14.3729 7.57534 15.2562Z" stroke="#292D32" stroke-width="1.5" stroke-linecap="round" stroke-linejoin="round"/>
</svg>
