<svg width="20" height="21" viewBox="0 0 20 21" fill="none" xmlns="http://www.w3.org/2000/svg">
<path d="M18.3334 5.74996V7.76662C18.3334 9.08329 17.5 9.91663 16.1834 9.91663H13.3334V4.09162C13.3334 3.16662 14.0917 2.41663 15.0167 2.41663C15.925 2.42496 16.7584 2.79162 17.3584 3.39162C17.9584 3.99996 18.3334 4.83329 18.3334 5.74996Z" stroke="#292D32" stroke-width="1.5" stroke-miterlimit="10" stroke-linecap="round" stroke-linejoin="round"/>
<path d="M1.66663 6.58329V18.25C1.66663 18.9416 2.44996 19.3333 2.99996 18.9166L4.42496 17.85C4.75829 17.6 5.22496 17.6333 5.52496 17.9333L6.90829 19.325C7.23329 19.65 7.76663 19.65 8.09163 19.325L9.49163 17.925C9.78329 17.6333 10.25 17.6 10.575 17.85L12 18.9166C12.55 19.325 13.3333 18.9333 13.3333 18.25V4.08329C13.3333 3.16663 14.0833 2.41663 15 2.41663H5.83329H4.99996C2.49996 2.41663 1.66663 3.90829 1.66663 5.74996V6.58329Z" stroke="#292D32" stroke-width="1.5" stroke-miterlimit="10" stroke-linecap="round" stroke-linejoin="round"/>
</svg>
